# xmcd
#
# Track frame offsets:
#	150
#	11819
#	22944
#	59230
#	65026
#	93789
#	110062
#	133343
#	148989
#	173761
#
# Disc length: 2565 seconds
#
# Revision: 0
# Processed by: cddbd v1.5.1PL0 Copyright (c) Steve Scherf et al.
# Submitted via: EasyCDDAExtractor 8.0.2.1
#
DISCID=980a030a
DTITLE=Ozzy Osbourne - Yokohama 01-03-89 Disc 2
DYEAR=1989
DGENRE=Hard Rock
TTITLE0=War Pigs
TTITLE1=Tattoed Dancer
TTITLE2=Drum Solo
TTITLE3=Tattoed Dancer Reprise
TTITLE4=Fire In The Sky
TTITLE5=Miracle Man
TTITLE6=Suicide Solution
TTITLE7=Iron Man
TTITLE8=Crazy Train
TTITLE9=Paranoid
EXTD=
EXTT0=
EXTT1=
EXTT2=
EXTT3=
EXTT4=
EXTT5=
EXTT6=
EXTT7=
EXTT8=
EXTT9=
PLAYORDER=
